<svg fill="#ffffff" xmlns="http://www.w3.org/2000/svg"  viewBox="0 0 50 50" width="100px" height="100px"><path d="M 14 4 C 8.4886661 4 4 8.4886661 4 14 L 4 36 C 4 41.511334 8.4886661 46 14 46 L 36 46 C 41.511334 46 46 41.511334 46 36 L 46 14 C 46 8.4886661 41.511334 4 36 4 L 14 4 z M 14 6 L 36 6 C 40.430666 6 44 9.5693339 44 14 L 44 36 C 44 40.430666 40.430666 44 36 44 L 14 44 C 9.5693339 44 6 40.430666 6 36 L 6 14 C 6 9.5693339 9.5693339 6 14 6 z M 32 13 C 28.831784 13 26.093824 14.857597 24.800781 17.542969 C 23.930607 17.204848 22.994154 17 22 17 C 18.123426 17 14.964148 19.810473 14.240234 23.484375 C 11.781965 24.412405 10 26.726427 10 29.5 C 10 32.718409 12.384447 35.338203 15.466797 35.845703 A 1.0001 1.0001 0 0 0 16 36 L 29 36 C 32.854334 36 36 32.854334 36 29 C 36 28.649611 35.964536 28.308532 35.914062 27.972656 C 38.35241 26.598868 40 23.987031 40 21 C 40 16.593562 36.406438 13 32 13 z M 32 15 C 35.325562 15 38 17.674438 38 21 C 38 23.097192 36.923196 24.925909 35.302734 25.998047 C 34.2169 23.769612 31.968849 22.20826 29.351562 22.070312 C 28.772052 20.623167 27.795654 19.380075 26.558594 18.484375 C 27.510509 16.431049 29.578254 15 32 15 z M 22 19 C 24.731835 19 27.016987 20.816348 27.75 23.298828 A 1.0001 1.0001 0 0 0 28.761719 24.013672 C 28.893652 24.006871 28.970027 24 29 24 C 31.773666 24 34 26.226334 34 29 C 34 31.773666 31.773666 34 29 34 L 16.886719 34 L 16.990234 34.855469 A 1.0001 1.0001 0 0 0 16.087891 33.978516 C 13.792805 33.769573 12 31.85754 12 29.5 C 12 27.416545 13.406241 25.684769 15.3125 25.164062 A 1.0001 1.0001 0 0 0 16.042969 24.3125 C 16.384344 21.319894 18.907735 19 22 19 z"/></svg>